<svg xmlns="http://www.w3.org/2000/svg" version="1.1" viewBox="-5.0 -10.0 110.0 135.0">
 <path d="m68.738 63.73c1.9336 0 3.5898-0.60547 4.7305-1.7305 1.0859-1.0703 1.7266-2.6289 1.7266-4.6211v-23.602c0-1.9883-0.64062-3.5508-1.7266-4.6211-1.1406-1.125-2.7969-1.7305-4.7305-1.7305l-37.477 0.003907c-1.9336 0-3.5898 0.60547-4.7305 1.7305-1.0859 1.0703-1.7266 2.6289-1.7266 4.6211v23.602c0 1.9883 0.64062 3.5508 1.7266 4.6211 1.1406 1.125 2.7969 1.7305 4.7305 1.7305h12.137c0.38672 0 0.71875 0.21875 0.88672 0.54688l4.5938 7.4219 4.6406-7.4961c0.18359-0.30078 0.51172-0.46875 0.83984-0.46875zm6.1172-0.32422c-1.5195 1.4961-3.6602 2.3047-6.1133 2.3047h-13.836l-5.1797 8.3633c-0.39062 0.64062-1.3008 0.63672-1.6836 0.015625l-5.1914-8.375h-11.59c-4.9453 0-8.4336-3.2461-8.4336-8.3281v-23.602c0-5.0859 3.4883-8.3281 8.4336-8.3281h37.477c4.9453 0 8.4336 3.2461 8.4336 8.3281v23.602c0.003906 2.5391-0.86328 4.582-2.3164 6.0195z" fill-rule="evenodd"/>
</svg>